<svg width="80" height="80" viewBox="0 0 80 80" fill="none" xmlns="http://www.w3.org/2000/svg">
<circle cx="40" cy="40" r="40" fill="#FAF5FF"/>
<path d="M49.0885 22.7073H41.4665L38.9513 18.8201C39.1037 18.5152 39.2561 18.1341 39.2561 17.753C39.2561 16.7622 38.4177 16 37.5031 16C36.5122 16 35.75 16.8384 35.75 17.753C35.75 18.7439 36.5885 19.5061 37.5031 19.5061C37.6555 19.5061 37.808 19.5061 37.9604 19.4299L40.0946 22.6311H30.3385L32.4726 19.4299C32.625 19.4299 32.7775 19.5061 32.9299 19.5061C33.9208 19.5061 34.683 18.7439 34.683 17.753C34.683 16.7622 33.8446 16 32.9299 16C31.9391 16 31.1769 16.8384 31.1769 17.753C31.1769 18.1341 31.3293 18.5152 31.558 18.8201L29.0427 22.7073H21.4208V23.8506H49.1647V22.7073H49.0885ZM36.8171 17.753C36.8171 17.372 37.122 17.1433 37.4269 17.1433C37.7318 17.1433 38.0366 17.4482 38.0366 17.753C38.0366 18.1341 37.7318 18.3628 37.4269 18.3628C37.122 18.3628 36.8171 18.0579 36.8171 17.753ZM32.9299 17.0671C33.311 17.0671 33.5397 17.372 33.5397 17.6768C33.5397 18.0579 33.2348 18.2866 32.9299 18.2866C32.5488 18.2866 32.3202 17.9817 32.3202 17.6768C32.2439 17.372 32.5488 17.0671 32.9299 17.0671Z" fill="black"/>
<path d="M53.5855 40.6948H48.0977V44.582H53.5855V40.6948ZM52.4422 43.4387H49.2409V41.8381H52.4422V43.4387Z" fill="black"/>
<path d="M65.5518 38.0275H62.503V28.8812H47.0305L47.7927 26.3659H49.9268V25.2227H20.5061V26.3659H22.6402L23.4024 28.8812H19.5915V53.6525H17V55.8629L19.0579 58.5306H63.1128L65.1707 55.8629V53.6525H62.5793V50.9849H65.628C66.3902 50.9849 67 50.3751 67 49.6129V39.3995C66.9238 38.6373 66.314 38.0275 65.5518 38.0275ZM65.7805 39.3995V47.2501H47.0305V39.3995C47.0305 39.3233 47.1067 39.1708 47.2591 39.1708H65.5518C65.628 39.1708 65.7805 39.247 65.7805 39.3995ZM43.5244 36.3507H41.6951L43.6768 26.3659H46.497L43.5244 36.3507ZM29.8049 36.3507L27.8232 26.3659H30.6433L31.6341 36.3507H29.8049ZM32.7774 36.3507L31.7866 26.3659H34.6067V36.3507H32.7774V36.3507ZM35.75 26.3659H38.5701L37.5793 36.3507H35.75V26.3659ZM39.7134 26.3659H42.5335L40.5518 36.3507H38.7226L39.7134 26.3659ZM26.6037 26.3659L28.5854 36.3507H26.7561L23.8598 26.3659H26.6037ZM63.9512 54.7958V55.4818L62.503 57.4635H19.5915L18.1433 55.558V54.872H63.9512V54.7958ZM61.3598 53.6525H20.7348V30.0245H23.7835L26.0701 37.494H44.439L46.7256 30.0245H61.3598V38.0275H47.2591C46.497 38.0275 45.8872 38.6373 45.8872 39.3995V49.6891C45.8872 50.4513 46.497 51.0611 47.2591 51.0611H61.3598V53.6525ZM65.5518 49.9178H47.2591C47.1829 49.9178 47.0305 49.8416 47.0305 49.6891V48.3172H65.7043V49.6891C65.7805 49.8416 65.628 49.9178 65.5518 49.9178Z" fill="black"/>
<path d="M64.4847 43.1343H57.0914V44.2776H64.4847V43.1343Z" fill="black"/>
<path d="M64.4848 41.0762H59.5305V42.2195H64.4848V41.0762Z" fill="black"/>
</svg>
