<svg viewBox="0 0 2093 2256" fill="none" xmlns="http://www.w3.org/2000/svg">
<path d="M1403.05 614.3C1669.42 855.694 2021.83 1034.28 2083.05 1274.04C2144.26 1513.25 1913.74 1813.08 1647.36 2004.23C1380.44 2195.38 1077.66 2277.84 801.914 2251.08C526.715 2223.77 278.541 2087.24 164.38 1896.09C50.2196 1704.94 70.625 1459.18 45.256 1188.29C19.8871 917.408 -51.2565 621.4 62.904 380.006C177.065 138.612 475.977 -47.6217 715.88 10.8152C955.782 69.7984 1136.12 372.906 1403.05 614.3Z" fill="#DAD9E8"/>
<mask id="mask0" mask-type="alpha" maskUnits="userSpaceOnUse" x="0" y="0" width="2093" height="2256">
<path d="M1403.05 614.3C1669.42 855.694 2021.83 1034.28 2083.05 1274.04C2144.26 1513.25 1913.74 1813.08 1647.36 2004.23C1380.44 2195.38 1077.66 2277.84 801.914 2251.08C526.715 2223.77 278.541 2087.24 164.38 1896.09C50.2196 1704.94 70.625 1459.18 45.256 1188.29C19.8871 917.408 -51.2565 621.4 62.904 380.006C177.065 138.612 475.977 -47.6217 715.88 10.8152C955.782 69.7984 1136.12 372.906 1403.05 614.3Z" fill="#DAD9E8"/>
</mask>
<g mask="url(#mask0)">
<g opacity="0.1">
<path opacity="0.1" d="M247.218 817.128V2276.02L124.851 2277.34C98.7373 2277.63 72.7339 2273.94 47.7531 2266.4V994.616H47.9554C108.055 921.474 175.44 860.441 247.218 817.128Z" fill="#6C63FF"/>
<path opacity="0.1" d="M2776.67 1026.33H22.7765C30.9671 1015.57 39.2926 1005.07 47.753 994.844V994.615H2769.82C2772.46 1004.98 2774.74 1015.55 2776.67 1026.33Z" fill="#6C63FF"/>
<path opacity="0.1" d="M1790.82 730.044V2259.44L1758.67 2259.79V736.571C1769.34 734.338 1780.04 732.134 1790.82 730.044Z" fill="#6C63FF"/>
<path opacity="0.1" d="M1019 871.947V2267.75L986.888 2268.09V870.43C997.612 871.117 1008.34 871.518 1019 871.947Z" fill="#6C63FF"/>
<path opacity="0.1" d="M2545.72 1966.56C2540.52 1977.38 2535.38 1987.99 2530.32 1998.39H-181.748C-185.467 1987.92 -188.936 1977.31 -192.155 1966.56H2545.72Z" fill="#6C63FF"/>
</g>
<path d="M442.866 1451.96H388.279V1617.62H442.866V1451.96Z" fill="#3F3D56"/>
<path d="M1920.24 1443.24H1865.65V1617.62H1920.24V1443.24Z" fill="#3F3D56"/>
<path d="M2270.65 2218.21V2255.13L1831.75 2259.11L1827.07 2259.19L1660.26 2260.7L1656.27 2260.76L1605.57 2261.18H1604.06L1294.99 2263.99L787.65 2268.62H787.216L658.221 2269.82L656.834 2269.85L83.6482 2275.01V2232.41L218.422 2152.88L488.836 2150.66L494.614 2150.64L496.521 2150.61L502.299 2150.52L632.133 2149.47L637.94 2149.44L639.789 2149.41L645.567 2149.39L687.198 2149.05L688.296 2149.02L791.001 2148.16H791.839L1593.26 2141.52L1612.88 2141.38H1614.84L1629.81 2141.23L1738.58 2140.35L1744.36 2140.27L1749.7 2140.21H1752.47L1786.3 2139.96L1793.01 2139.87L1801.99 2139.81L1830.16 2139.56L1874.85 2139.19L1880.63 2139.13L1890.69 2139.08H1892.56L2108.4 2137.26L2270.65 2218.21Z" fill="#65617D"/>
<path opacity="0.2" d="M2270.65 2218.21V2255.13L1831.75 2259.11L1827.07 2259.19L1660.26 2260.7L1656.27 2260.76L1605.57 2261.18H1604.06L1294.99 2263.99L787.65 2268.62H787.216L658.221 2269.82L656.834 2269.85L83.6482 2275.01V2232.41L218.422 2152.88L488.836 2150.66L494.614 2150.64L496.521 2150.61L502.299 2150.52L632.133 2149.47L637.94 2149.44L639.789 2149.41L645.567 2149.39L687.198 2149.05L688.296 2149.02L791.001 2148.16H791.839L1593.26 2141.52L1612.88 2141.38H1614.84L1629.81 2141.23L1738.58 2140.35L1744.36 2140.27L1749.7 2140.21H1752.47L1786.3 2139.96L1793.01 2139.87L1801.99 2139.81L1830.16 2139.56L1874.85 2139.19L1880.63 2139.13L1890.69 2139.08H1892.56L2108.4 2137.26L2270.65 2218.21Z" fill="black"/>
<path d="M633.041 2076.23V2145.65C633.042 2148.94 632.085 2152.16 630.281 2154.94C628.477 2157.72 625.9 2159.94 622.849 2161.35C620.578 2162.43 618.094 2163.01 615.57 2163.06L513.949 2165.15C511.235 2165.22 508.544 2164.66 506.088 2163.54C502.983 2162.15 500.353 2159.93 498.51 2157.13C496.667 2154.33 495.689 2151.07 495.693 2147.75V2076.23H633.041Z" fill="#3F3D56"/>
<path opacity="0.1" d="M633.041 2076.23V2145.65C633.042 2148.94 632.085 2152.16 630.281 2154.94C628.477 2157.72 625.9 2159.94 622.849 2161.35C620.578 2162.43 618.094 2163.01 615.57 2163.06L513.949 2165.15C511.235 2165.22 508.544 2164.66 506.088 2163.54C502.983 2162.15 500.353 2159.93 498.51 2157.13C496.667 2154.33 495.689 2151.07 495.693 2147.75V2076.23H633.041Z" fill="black"/>
<path d="M638.323 2076.23V2145.65C638.325 2148.94 637.368 2152.16 635.564 2154.94C633.76 2157.72 631.183 2159.94 628.132 2161.35C625.86 2162.43 623.377 2163.01 620.853 2163.06L519.232 2165.15C516.518 2165.22 513.826 2164.66 511.37 2163.54C508.266 2162.15 505.635 2159.93 503.792 2157.13C501.949 2154.33 500.972 2151.07 500.975 2147.75V2076.23H638.323Z" fill="#3F3D56"/>
<path d="M1881.5 2076.23H1744.15V2165.16H1881.5V2076.23Z" fill="#3F3D56"/>
<path opacity="0.1" d="M1881.5 2076.23H1744.15V2165.16H1881.5V2076.23Z" fill="black"/>
<path d="M1874.46 2076.23H1738.87V2165.16H1874.46V2076.23Z" fill="#3F3D56"/>
<path opacity="0.1" d="M442.866 1451.96V1467.65L388.279 1466.31V1451.96H442.866Z" fill="black"/>
<path d="M803.725 990.47L737.804 1458.8C737.386 1461.79 735.868 1464.53 733.54 1466.48C731.212 1468.43 728.238 1469.47 725.185 1469.39L197.355 1455.86L187.336 1455.6C185.591 1455.56 183.875 1455.16 182.299 1454.42C180.723 1453.67 179.323 1452.61 178.189 1451.3C177.056 1449.99 176.215 1448.45 175.721 1446.8C175.227 1445.14 175.092 1443.4 175.324 1441.69L249.33 951.433C249.807 948.397 251.418 945.647 253.845 943.728C256.272 941.809 259.339 940.859 262.439 941.067L792.175 976.535C793.884 976.633 795.554 977.08 797.08 977.848C798.605 978.617 799.953 979.689 801.038 980.999C802.124 982.308 802.923 983.826 803.385 985.456C803.847 987.086 803.963 988.794 803.725 990.47V990.47Z" fill="#65617D"/>
<path d="M285.55 974.17L229.801 1408.75L714.325 1424.06L773.911 1004.78L285.55 974.17Z" fill="#6C63FF"/>
<path d="M1464.61 968.939H903.775C895.266 968.939 888.367 975.758 888.367 984.168V1448.94C888.367 1457.35 895.266 1464.17 903.775 1464.17H1464.61C1473.12 1464.17 1480.02 1457.35 1480.02 1448.94V984.168C1480.02 975.758 1473.12 968.939 1464.61 968.939Z" fill="#65617D"/>
<path d="M1453.61 1002.07H916.541V1415.34H1453.61V1002.07Z" fill="#6C63FF"/>
<path opacity="0.1" d="M1920.24 1443.24V1454.31L1865.65 1455.45V1443.24H1920.24Z" fill="black"/>
<path d="M2168.5 1434.91C2168.58 1436.1 2168.42 1437.3 2168.02 1438.42C2167.62 1439.55 2167 1440.58 2166.19 1441.46C2165.38 1442.34 2164.4 1443.05 2163.3 1443.54C2162.21 1444.04 2161.03 1444.3 2159.83 1444.33L1618.41 1455.45C1616.16 1455.49 1613.98 1454.69 1612.3 1453.21C1610.62 1451.72 1609.57 1449.66 1609.36 1447.43L1562.82 967.085C1562.71 965.894 1562.84 964.691 1563.2 963.551C1563.57 962.411 1564.17 961.356 1564.96 960.451C1565.75 959.546 1566.71 958.81 1567.8 958.287C1568.88 957.764 1570.06 957.465 1571.27 957.408L2108.58 930.876L2114.36 930.588C2116.66 930.468 2118.92 931.239 2120.65 932.739C2122.39 934.24 2123.48 936.351 2123.67 938.629L2168.5 1434.91Z" fill="#65617D"/>
<path d="M1594.48 985.83L2084.85 961.965L2126.26 1396.92L1639.77 1408.37L1594.48 985.83Z" fill="#6C63FF"/>
<path opacity="0.1" d="M263.257 941.073L197.541 1455.45L187.437 1455.19C185.678 1455.15 183.948 1454.75 182.358 1454.01C180.769 1453.27 179.357 1452.21 178.214 1450.89C177.071 1449.58 176.223 1448.05 175.725 1446.4C175.227 1444.74 175.091 1443.01 175.325 1441.3L249.951 951.459C250.426 948.403 252.061 945.637 254.528 943.711C256.995 941.786 260.112 940.844 263.257 941.073V941.073Z" fill="black"/>
<path opacity="0.1" d="M442.866 1568.79H388.279V1617.62H442.866V1568.79Z" fill="black"/>
<path opacity="0.1" d="M638.323 2076.23V2090.14L500.975 2093.66V2076.23H638.323Z" fill="black"/>
<path d="M879.563 1585.31V2066.05C879.528 2068.99 878.351 2071.8 876.276 2073.9C874.201 2076 871.387 2077.23 868.417 2077.34L313.577 2091.92H313.432C310.411 2091.88 307.524 2090.68 305.387 2088.57C303.251 2086.46 302.034 2083.61 301.996 2080.63V1585.31C302.034 1582.33 303.251 1579.48 305.387 1577.37C307.524 1575.26 310.411 1574.06 313.432 1574.02H868.127C871.148 1574.06 874.035 1575.26 876.172 1577.37C878.308 1579.48 879.525 1582.33 879.563 1585.31V1585.31Z" fill="#65617D"/>
<path opacity="0.1" d="M314.323 1574.02V2091.92H314.169C310.953 2091.88 307.88 2090.68 305.606 2088.57C303.332 2086.46 302.036 2083.61 301.996 2080.63V1585.31C302.036 1582.33 303.332 1579.48 305.606 1577.37C307.88 1575.26 310.953 1574.06 314.169 1574.02H314.323Z" fill="black"/>
<path d="M338.975 1605.41H851.389V2028.2L338.975 2039.61V1605.41Z" fill="#D4DFEC"/>
<path opacity="0.1" d="M1920.24 1568.79H1865.65V1617.62H1920.24V1568.79Z" fill="black"/>
<path opacity="0.1" d="M1874.46 2076.23V2093.66L1738.87 2090.24V2076.23H1874.46Z" fill="black"/>
<path d="M2055.83 1585.31V2080.63C2055.79 2083.64 2054.55 2086.51 2052.38 2088.62C2050.22 2090.74 2047.29 2091.92 2044.25 2091.92V2091.92L1489.4 2077.34C1486.43 2077.23 1483.62 2076 1481.55 2073.9C1479.47 2071.8 1478.29 2068.99 1478.26 2066.05V1585.31C1478.3 1582.33 1479.51 1579.48 1481.65 1577.37C1483.79 1575.26 1486.67 1574.06 1489.69 1574.02H2044.28C2047.32 1574.03 2050.23 1575.22 2052.39 1577.33C2054.56 1579.44 2055.79 1582.31 2055.83 1585.31V1585.31Z" fill="#65617D"/>
<path opacity="0.1" d="M2055.83 1585.31V2080.63C2055.79 2083.64 2054.47 2086.51 2052.16 2088.62C2049.85 2090.74 2046.74 2091.92 2043.5 2091.92V2091.92V1574.02C2046.74 1574.02 2049.85 1575.21 2052.16 1577.32C2054.47 1579.43 2055.79 1582.31 2055.83 1585.31Z" fill="black"/>
<path d="M2018.85 1605.41H1504.67V2028.2L2018.85 2039.61V1605.41Z" fill="#D4DFEC"/>
<path d="M1464.17 1585.31V2066.05C1464.14 2068.99 1462.96 2071.8 1460.89 2073.9C1458.81 2076 1456 2077.23 1453.03 2077.34L898.187 2091.92C895.14 2091.92 892.217 2090.74 890.049 2088.62C887.881 2086.51 886.644 2083.64 886.606 2080.63V1585.31C886.644 1582.33 887.861 1579.48 889.997 1577.37C892.134 1575.26 895.021 1574.06 898.042 1574.02H1452.74C1455.76 1574.06 1458.65 1575.26 1460.78 1577.37C1462.92 1579.48 1464.14 1582.33 1464.17 1585.31V1585.31Z" fill="#65617D"/>
<path d="M923.585 1605.41H1437.76V2028.2L923.585 2039.61V1605.41Z" fill="#D4DFEC"/>
<path opacity="0.1" d="M2270.65 2219.21V2255.48L1831.75 2259.39L1827.07 2259.47L1660.26 2260.95L1656.27 2261.01L1605.57 2261.43H1604.06L1294.99 2264.19L787.65 2268.74H787.216L658.221 2269.91L656.834 2269.94L83.6482 2275.01V2233.16L668.708 2229.45H670.095L788.516 2228.67H789.065L1606.9 2223.45H1607.73L1608.22 2223.43H1609.58L1623.42 2223.34H1627.64L1842.84 2221.95L1855.55 2221.89L1858.39 2221.86L2270.65 2219.21Z" fill="black"/>
<path d="M1185.07 1617.62C1267.25 1617.62 1333.87 1551.65 1333.87 1470.27C1333.87 1388.89 1267.25 1322.92 1185.07 1322.92C1102.9 1322.92 1036.28 1388.89 1036.28 1470.27C1036.28 1551.65 1102.9 1617.62 1185.07 1617.62Z" fill="#FBBEBE"/>
<path d="M1333.87 1769.78C1333.87 1769.78 1045.85 1804.06 1073.35 1769.78C1083.31 1757.38 1086.06 1720.64 1085.51 1678.79C1085.33 1666.08 1084.87 1652.91 1084.2 1639.8C1081.02 1576.94 1073.35 1515.52 1073.35 1515.52C1073.35 1515.52 1325.18 1398.39 1296.24 1491.24C1284.66 1528.75 1288.45 1581.43 1297.25 1630.88C1299.83 1645.31 1302.81 1659.45 1305.93 1672.88C1313.56 1705.63 1322.89 1737.97 1333.87 1769.78V1769.78Z" fill="#FBBEBE"/>
<path opacity="0.1" d="M1333.87 1769.83C1333.87 1769.83 1045.85 1804.01 1073.35 1769.83C1083.31 1757.46 1086.06 1720.83 1085.51 1679.11C1129.42 1660.65 1185.29 1674.41 1185.29 1674.41C1244.1 1662.87 1281.82 1665.12 1305.93 1673.21C1313.56 1705.86 1322.89 1738.11 1333.87 1769.83V1769.83Z" fill="black"/>
<path d="M787.512 2273.27V2270.86L1295.17 2265.38L1604.47 2262.51H1605.34L1605.02 2266.76L1605.45 2262.51H1606V2262.03L1609.96 2223.44L1611.46 2208.84L1611.93 2204.28L1612.33 2200.46L1630.2 2141.33L1648.06 2082.29L1663.09 2032.57L1686.04 1956.61C1686.04 1956.61 1673.03 1926.48 1665.81 1917.88C1658.58 1909.27 1651.35 1850.46 1651.35 1850.46C1651.35 1850.46 1589.67 1792.14 1562.7 1785.42C1551.4 1782.55 1529.08 1778.74 1505.38 1773.95C1496.5 1772.17 1487.4 1770.28 1478.64 1768.21C1473.7 1767.09 1468.84 1765.92 1464.19 1764.74C1455.13 1762.49 1446.2 1759.75 1437.45 1756.53C1432.86 1754.88 1428.49 1752.67 1424.44 1749.96C1403.19 1734.5 1349.95 1732.75 1347.89 1732.75C1347.89 1732.68 1347.89 1732.62 1347.89 1732.55V1732.29C1347.97 1731.09 1347.97 1729.88 1347.89 1728.68C1347.89 1727.53 1347.89 1726.18 1347.63 1724.66C1347.63 1724.2 1347.63 1723.71 1347.43 1723.23C1347.29 1722.19 1347.11 1721.1 1346.85 1719.96C1346.77 1719.44 1346.65 1718.94 1346.51 1718.44C1345.67 1714.98 1344.46 1711.62 1342.89 1708.42C1342.69 1707.96 1342.43 1707.48 1342.2 1707.02C1340.78 1704.37 1339.14 1701.84 1337.29 1699.47C1336.91 1698.99 1336.5 1698.47 1336.07 1697.98C1333.7 1695.21 1331.07 1692.67 1328.21 1690.41C1327.43 1689.81 1326.62 1689.17 1325.78 1688.6C1325.31 1688.22 1324.82 1687.88 1324.31 1687.57L1321.73 1685.9L1319.33 1684.53C1317.22 1683.38 1315 1682.26 1312.57 1681.2C1311.82 1680.85 1311.01 1680.54 1310.2 1680.22C1309.39 1679.91 1308.12 1679.42 1307.05 1679.02H1306.88L1304.71 1678.16C1303.06 1677.61 1301.38 1677.12 1299.62 1676.64L1296.93 1675.95L1294.04 1675.29L1291.15 1674.69C1288.26 1674.11 1285.17 1673.6 1281.93 1673.19L1278.63 1672.79L1275.25 1672.45L1271.75 1672.16L1266.78 1671.87L1261 1671.67C1235.5 1671.67 1210.08 1674.35 1185.15 1679.68C1167.83 1675.85 1150.1 1674.23 1132.37 1674.86H1129.85L1126.96 1675.03H1125.11L1121.38 1675.37C1120.14 1675.37 1118.87 1675.63 1117.62 1675.8C1116.38 1675.98 1115.08 1676.12 1113.84 1676.32L1111.93 1676.64C1110.05 1676.95 1108.14 1677.3 1106.15 1677.7C1105.51 1677.81 1104.88 1677.96 1104.24 1678.13C1101.73 1678.67 1099.21 1679.33 1096.73 1680.08C1095.48 1680.42 1094.24 1680.83 1093 1681.26C1092.36 1681.43 1091.75 1681.66 1091.15 1681.89L1089.3 1682.55L1087.48 1683.26L1085.31 1684.12C1084.21 1684.58 1083.14 1685.07 1082.07 1685.59C1081.46 1685.85 1080.86 1686.13 1080.28 1686.45C1079.7 1686.76 1079.09 1687.02 1078.54 1687.34C1072.01 1690.69 1065.97 1694.92 1060.59 1699.9L1059.12 1701.31L1057.67 1702.77C1057.18 1703.26 1056.72 1703.78 1056.26 1704.29C1054.37 1706.34 1052.62 1708.49 1051 1710.75C1050.53 1711.35 1050.1 1711.95 1049.67 1712.58C1047.83 1715.27 1046.17 1718.07 1044.69 1720.96C1044.32 1721.65 1043.97 1722.37 1043.62 1723.05C1041.27 1727.9 1039.33 1732.94 1037.84 1738.12C1037.3 1740.03 1036.81 1741.94 1036.37 1743.85C1036.37 1743.85 975.173 1770.65 924.413 1790.04C910.914 1795.21 898.195 1799.88 887.558 1803.41C884.465 1804.44 881.574 1805.39 878.886 1806.28C873.053 1808.37 866.987 1809.76 860.819 1810.41C857.912 1810.46 855.013 1810.73 852.147 1811.21C828.82 1814.97 788.842 1831.3 784.477 1847.68C784.122 1848.99 784.024 1850.35 784.188 1851.69C784.188 1851.69 784.188 1851.89 784.188 1852.01C787.078 1872.09 766.844 1869.22 766.844 1869.22C766.844 1869.22 759.617 1922.3 749.5 1936.64C742.187 1946.97 737.186 1970.01 736.55 1987.39C736.186 1992.81 736.615 1998.25 737.822 2003.54C737.822 2003.69 737.822 2003.83 737.822 2003.94C738.978 2007.79 736.203 2018.29 731.491 2031.74C726.375 2046.52 718.917 2064.88 711.748 2082.21C700.937 2108.37 690.762 2132.12 690.126 2137.34C689.866 2139.67 689.114 2143.83 688.074 2149.19C683.853 2171.05 674.488 2212.68 669.862 2229.52C666.423 2242.09 661.422 2259.3 657.982 2271.12C657.982 2271.46 657.78 2271.81 657.693 2272.12L787.281 2270.86V2273.27H787.686H787.512Z" fill="#6C63FF"/>
<path opacity="0.1" d="M833.78 1934.98C833.78 1934.98 999.552 2019.12 1059.17 2009.14L833.78 1934.98Z" fill="black"/>
<path opacity="0.1" d="M1170.11 1900.11C1170.11 1900.11 1329.91 1951.69 1383.17 1958.85C1436.44 1966.01 1170.11 1900.11 1170.11 1900.11Z" fill="black"/>
<path opacity="0.1" d="M1347.96 1735.08C1264.12 1750.24 1106.27 1746.97 1038.04 1744.67C1063.05 1656.67 1184.99 1686.59 1184.99 1686.59C1335.93 1657.01 1347.49 1718.39 1347.96 1735.08Z" fill="black"/>
<path d="M1347.96 1729.55C1264.12 1745.1 1106.27 1741.75 1038.04 1739.39C1063.05 1649.13 1184.99 1679.82 1184.99 1679.82C1335.93 1649.48 1347.49 1712.43 1347.96 1729.55Z" fill="#6C63FF"/>
<path d="M1793.46 2120.61C1793.46 2120.61 1891.84 2105.66 1893.77 2148.38C1895.7 2191.11 1843.6 2220.96 1843.6 2220.96L1793.46 2120.61Z" fill="#FBBEBE"/>
<path opacity="0.1" d="M1297.52 1631.24C1293.26 1633.12 1288.91 1634.78 1284.48 1636.22C1253.25 1646.87 1221.76 1657.6 1188.88 1661.49C1156 1665.39 1121.49 1661.95 1092.81 1645.75C1089.8 1644.07 1086.9 1642.2 1084.12 1640.17C1080.94 1577.19 1073.26 1515.64 1073.26 1515.64C1073.26 1515.64 1325.3 1398.28 1296.33 1491.31C1284.8 1528.9 1288.71 1581.68 1297.52 1631.24Z" fill="black"/>
<path d="M1143.82 1239.85C1139.71 1240.93 1135.39 1241.04 1131.22 1240.17C1127.06 1239.3 1123.15 1237.47 1119.82 1234.83L1125.82 1243.12C1122.28 1243.53 1118.7 1243.16 1115.32 1242.05C1111.94 1240.93 1108.85 1239.1 1106.26 1236.67C1105.71 1244.09 1106.02 1251.55 1107.18 1258.9C1097.25 1259.37 1087.48 1256.32 1079.6 1250.29C1079.45 1252.88 1080.09 1255.45 1081.46 1257.66C1082.82 1259.87 1084.83 1261.62 1087.22 1262.65C1077.24 1261.47 1067.17 1263.93 1058.89 1269.59C1050.61 1275.24 1044.68 1283.69 1042.21 1293.37L1057.27 1294.75C1045.43 1297.26 1034.81 1303.71 1027.15 1313.02C1022.53 1318.76 1019.01 1326.1 1021.03 1333.1C1023.05 1340.1 1032.8 1344.57 1038.11 1339.58C1030.56 1348.54 1025.07 1359.03 1022.03 1370.33C1018.99 1381.62 1018.47 1393.43 1020.51 1404.95C1021.88 1409.85 1022.33 1414.97 1021.84 1420.03C1020.89 1424.77 1017.88 1428.87 1016.38 1433.49C1013.5 1441.86 1016.24 1450.95 1018.81 1459.3L1032.34 1503.53C1037.24 1519.5 1042.12 1535.51 1048.53 1550.97C1053.06 1560.74 1056.92 1570.81 1060.07 1581.11C1063.7 1594.99 1063.85 1610.2 1071.61 1622.33C1076.93 1629.96 1084.04 1636.19 1092.32 1640.48C1120.86 1656.72 1155.34 1660.16 1188 1656.26C1220.66 1652.36 1251.99 1641.6 1283.07 1630.93C1289.97 1628.87 1296.59 1625.98 1302.8 1622.33C1324.29 1608.33 1329.08 1579.71 1333.09 1554.49C1337.57 1526.39 1343.54 1498.34 1354.13 1471.89C1360.42 1456.14 1368.55 1440.17 1367.17 1423.3C1365.41 1400.9 1347.58 1382.75 1343.16 1360.72C1341.69 1353.36 1341.75 1345.77 1343.37 1338.43C1344.73 1334.06 1345.5 1329.53 1345.65 1324.95C1345.15 1315.72 1337.54 1308.6 1330.38 1302.67C1314.86 1289.78 1298.84 1277.6 1282.31 1266.13C1281.48 1260.39 1289.33 1257.92 1292.87 1253.39C1297.89 1246.99 1292.7 1236.84 1285.08 1233.86C1277.47 1230.87 1268.93 1232.83 1260.99 1234.8C1261.51 1230.77 1260.7 1226.67 1258.69 1223.13C1256.68 1219.58 1253.57 1216.78 1249.82 1215.13C1246.08 1213.49 1241.9 1213.08 1237.91 1213.99C1233.92 1214.89 1230.33 1217.05 1227.67 1220.15C1225.56 1215.34 1222.2 1211.19 1217.92 1208.12C1213.65 1205.06 1208.62 1203.19 1203.38 1202.71C1184.25 1201.22 1183.87 1215.76 1171.64 1223.76C1159.4 1231.76 1149.31 1221.21 1139.9 1213.52C1138.17 1217.87 1137.63 1222.59 1138.31 1227.21C1139 1231.83 1140.9 1236.19 1143.82 1239.85V1239.85Z" fill="#3F3D56"/>
<path d="M1865.65 2206.16C1865.65 2206.16 1863.08 2212.23 1858.33 2221.02C1851.15 2234.54 1842.4 2247.19 1832.28 2258.72L1831.49 2259.55H1826.8L1659.67 2261.06H1655.67L1655.18 2260.49L1622.76 2222.45L1610.54 2208.11L1610.05 2207.51L1609.01 2206.31L1608.43 2205.62L1607.68 2204.73L1583.91 2176.85L1592.6 2141.07L1607.39 2080.79L1607.76 2079.33L1610.66 2067.88L1612.71 2059.29L1619.6 2031.3L1643.22 1934.98L1685.2 1956.45L1729.46 2033.73L1753.22 2075.24H1766.25C1768.71 2075.24 1774.35 2079.93 1780.03 2085.34C1782.05 2087.26 1784.08 2089.29 1785.82 2091.07C1790.97 2096.33 1795.05 2100.86 1795.05 2100.86C1795.05 2100.86 1816.15 2101.31 1821.83 2117.74C1822.12 2118.54 1822.36 2119.35 1822.55 2120.18C1824.43 2126.64 1826.88 2132.92 1829.87 2138.96C1833.61 2147 1838.3 2156.13 1843.04 2165.26C1851.87 2182.01 1860.85 2197.95 1864.15 2203.73L1864.55 2204.45L1865.65 2206.16Z" fill="#6C63FF"/>
<path opacity="0.1" d="M1617.29 2076.62L1617 2080.74V2081.03L1616.51 2087.65L1612.66 2140.97L1608.01 2205.2L1606.68 2223.29L1603.79 2262.01V2262.5L1294.38 2265.38L786.641 2270.85V2273.27H786.237V2270.85V2270.04L787.538 2228.68L790.025 2147.85L792.164 2079.33L792.367 2072.5C792.493 2068.38 793.462 2064.33 795.213 2060.59C796.964 2056.86 799.461 2053.52 802.551 2050.77C805.642 2048.03 809.261 2045.95 813.187 2044.65C817.114 2043.34 821.266 2042.85 825.389 2043.2C839.038 2044.36 856.763 2045.77 877.959 2047.27L886.634 2047.9C1009.04 2056.37 1235.25 2067.31 1463.51 2053.66C1468.31 2053.4 1473.14 2053.11 1477.97 2052.77C1513.36 2050.55 1548.73 2047.7 1583.75 2044.13C1588.17 2043.66 1592.65 2044.17 1596.86 2045.62C1601.06 2047.07 1604.9 2049.42 1608.1 2052.5C1611.3 2055.58 1613.78 2059.33 1615.36 2063.47C1616.95 2067.61 1617.61 2072.05 1617.29 2076.47V2076.62Z" fill="black"/>
<path d="M787.997 2273.16V2270.74L1294.96 2265.26L1603.84 2262.39H1604.7V2261.9L1607.59 2223.31L1608.83 2206.09L1613.57 2141.17L1617.29 2089.78V2088.51C1617.46 2086.14 1617.35 2083.76 1616.97 2081.42C1616.99 2081.33 1616.99 2081.23 1616.97 2081.13C1616.18 2076.29 1614.2 2071.71 1611.2 2067.81C1608.02 2063.76 1603.85 2060.58 1599.1 2058.57C1594.34 2056.56 1589.15 2055.79 1584.01 2056.33C1549.05 2059.89 1513.74 2062.73 1478.41 2064.94C1473.59 2065.28 1468.77 2065.57 1463.98 2065.83C1236.1 2079.3 1010.27 2068.39 888.079 2060.09L879.419 2059.46C858.26 2057.96 840.564 2056.59 826.939 2055.41C819.444 2054.78 811.98 2056.93 805.988 2061.46C799.996 2065.98 795.9 2072.55 794.493 2079.9C794.201 2081.45 794.027 2083.03 793.973 2084.61L792.01 2148.23L789.325 2228.83L788.055 2270.06V2270.86V2273.27L787.997 2273.16Z" fill="#3F3D56"/>
<path opacity="0.1" d="M1619.08 2096.58L1615.53 2140.53L1610.24 2206.03L1608.91 2222.43L1606.02 2259.15L1605.85 2260.98V2261.47L1605.41 2265.71L1605.73 2261.47H1604.89L1295.65 2264.34L787.997 2269.78V2268.98L789.414 2227.82L792.304 2147.38L794.153 2093.92C794.244 2090.88 795.101 2087.91 796.646 2085.28C798.191 2082.65 800.374 2080.44 802.997 2078.87C806.27 2076.88 810.096 2075.97 813.922 2076.29C819.991 2076.77 827.448 2077.35 836.147 2077.98C850.28 2079.01 867.707 2080.21 887.996 2081.48C925.568 2083.83 972.706 2086.35 1026.72 2088.41C1177.01 2094.15 1379.9 2096.07 1572.61 2079.33C1581.28 2078.58 1590.24 2077.75 1599 2076.92C1602.46 2076.58 1605.96 2077.23 1609.05 2078.81C1609.93 2079.24 1610.76 2079.76 1611.54 2080.36C1614.06 2082.17 1616.05 2084.6 1617.32 2087.41C1617.61 2087.97 1617.86 2088.55 1618.04 2089.16C1618.91 2091.53 1619.27 2094.06 1619.08 2096.58V2096.58Z" fill="black"/>
<path opacity="0.1" d="M638.323 2137.26V2146.04C638.325 2149.23 637.368 2152.36 635.564 2155.06C633.76 2157.76 631.183 2159.92 628.132 2161.29L511.37 2163.41C508.266 2162.07 505.635 2159.91 503.792 2157.19C501.949 2154.47 500.972 2151.31 500.975 2148.08V2139.82L638.323 2137.26Z" fill="black"/>
<path d="M640.084 2167.5L488.649 2170.39V2145.37L640.084 2142.49V2167.5Z" fill="#3F3D56"/>
<path opacity="0.1" d="M640.084 2167.5L488.649 2170.39V2145.37L640.084 2142.49V2167.5Z" fill="black"/>
<path d="M645.367 2167.5L493.932 2170.39V2145.37L645.367 2142.49V2167.5Z" fill="#3F3D56"/>
<g opacity="0.1">
<path opacity="0.1" d="M1145.36 1230.96C1142.54 1227.33 1140.66 1223.06 1139.9 1218.54C1139.2 1222.96 1139.62 1227.48 1141.11 1231.7C1142.55 1231.57 1143.97 1231.32 1145.36 1230.96Z" fill="black"/>
<path opacity="0.1" d="M1108.65 1249.97C1108.1 1246.46 1107.75 1242.92 1107.58 1239.38C1107.58 1242.9 1107.58 1246.45 1107.58 1250L1108.65 1249.97Z" fill="black"/>
<path opacity="0.1" d="M1344.25 1345.49C1344.41 1342.94 1344.76 1340.41 1345.29 1337.91C1346.66 1333.55 1347.43 1329.04 1347.6 1324.48C1347.54 1323.46 1347.38 1322.44 1347.14 1321.45C1346.65 1324.08 1345.87 1326.72 1345.29 1329.32C1344.13 1334.63 1343.78 1340.08 1344.25 1345.49Z" fill="black"/>
<path opacity="0.1" d="M1284.12 1257.04L1287.27 1259.3C1289.93 1257.4 1292.41 1255.27 1294.7 1252.94C1295.79 1251.45 1296.46 1249.71 1296.65 1247.88C1296.85 1246.05 1296.55 1244.2 1295.8 1242.52C1295.51 1243.18 1295.14 1243.79 1294.7 1244.36C1291.14 1248.88 1283.28 1251.37 1284.12 1257.04Z" fill="black"/>
<path opacity="0.1" d="M1046.58 1284.58C1045.53 1286.67 1044.69 1288.85 1044.07 1291.11C1048.59 1288.61 1053.46 1286.78 1058.52 1285.69L1046.58 1284.58Z" fill="black"/>
<path opacity="0.1" d="M1086.45 1253.43C1084.55 1252.4 1082.73 1251.22 1081.01 1249.91C1080.94 1251.04 1081.03 1252.18 1081.27 1253.29C1083 1253.21 1084.73 1253.25 1086.45 1253.43V1253.43Z" fill="black"/>
<path opacity="0.1" d="M1369.08 1422.1C1367.9 1435.99 1361.36 1449.36 1356.07 1462.52C1345.46 1488.92 1339.48 1516.92 1335 1545C1330.98 1570.16 1326.33 1598.73 1304.64 1612.67C1298.45 1616.34 1291.82 1619.22 1284.9 1621.26C1253.74 1631.94 1222.31 1642.65 1189.5 1646.54C1156.69 1650.43 1122.26 1647.03 1093.64 1630.82C1085.35 1626.53 1078.22 1620.32 1072.89 1612.7C1065.17 1600.59 1065.03 1585.42 1061.33 1571.56C1058.17 1561.28 1054.31 1551.21 1049.76 1541.45C1043.37 1526.05 1038.46 1509.96 1033.57 1494.13C1029.05 1479.41 1024.53 1464.69 1020.02 1449.96C1018.53 1445.52 1017.43 1440.98 1016.72 1436.36C1015.59 1443.69 1017.79 1451.36 1020.02 1458.54C1024.53 1473.3 1029.05 1488.02 1033.57 1502.72C1038.46 1518.66 1043.37 1534.64 1049.76 1550.04C1054.31 1559.8 1058.17 1569.86 1061.33 1580.15C1064.97 1594.01 1065.11 1609.18 1072.89 1621.29C1078.22 1628.9 1085.35 1635.12 1093.64 1639.41C1122.26 1655.61 1156.78 1659.02 1189.5 1655.13C1222.23 1651.23 1253.62 1640.53 1284.9 1629.85C1291.82 1627.81 1298.45 1624.93 1304.64 1621.26C1326.18 1607.32 1330.98 1578.75 1335 1553.59C1339.48 1525.5 1345.46 1497.51 1356.07 1471.11C1362.37 1455.42 1370.53 1439.48 1369.14 1422.62C1369.14 1422.45 1369.08 1422.27 1369.08 1422.1Z" fill="black"/>
<path opacity="0.1" d="M1023.08 1411.02C1023.08 1411.02 1023.08 1410.82 1023.08 1410.71C1023.6 1405.66 1023.15 1400.56 1021.75 1395.68C1021.17 1392.54 1020.8 1389.36 1020.62 1386.18C1020.29 1392.23 1020.67 1398.3 1021.75 1404.27C1022.21 1406.5 1022.73 1408.76 1023.08 1411.02Z" fill="black"/>
<path opacity="0.1" d="M1031.9 1341C1034.12 1337.3 1036.64 1333.79 1039.44 1330.5C1034.15 1335.51 1024.38 1331.04 1022.33 1324.08C1021.57 1326.9 1021.57 1329.86 1022.33 1332.67C1023.04 1334.77 1024.3 1336.65 1025.98 1338.11C1027.66 1339.58 1029.7 1340.57 1031.9 1341V1341Z" fill="black"/>
</g>
<path opacity="0.1" d="M1753.84 2076.23C1753.84 2076.23 1763.74 2108.71 1753.84 2136.95C1743.93 2165.19 1753.84 2076.23 1753.84 2076.23Z" fill="black"/>
<path opacity="0.1" d="M1792.58 2109.36C1792.58 2109.36 1796.53 2150.27 1787.63 2157.53C1778.74 2164.79 1792.58 2109.36 1792.58 2109.36Z" fill="black"/>
<path d="M351.301 1671.67L645.367 1669.93" stroke="#D4DFEC" stroke-width="2" stroke-miterlimit="10"/>
<path d="M351.301 1708.29L645.367 1704.8" stroke="#D4DFEC" stroke-width="2" stroke-miterlimit="10"/>
<path d="M351.301 1743.17L645.367 1741.42" stroke="#D4DFEC" stroke-width="2" stroke-miterlimit="10"/>
</g>
</svg>
