<svg width="80" height="80" viewBox="0 0 80 80" fill="none" xmlns="http://www.w3.org/2000/svg">
<circle cx="40" cy="40" r="40" fill="#FAF5FF"/>
<path d="M65 37.9441C65 31.8106 60.0311 26.8416 53.8975 26.8416C53.1988 26.8416 52.1118 26.9969 51.4907 27.1522C50.1708 22.4161 45.7453 19 40.7764 19C35.9627 19 31.7702 22.1056 30.2174 26.6087C29.441 26.3758 28.7422 26.2205 27.8882 26.2205C22.1429 26.2205 20.9783 31.1894 20.7453 32.7422C17.4068 33.5963 15 36.7019 15 40.1957C15 44.4658 18.4161 47.882 22.6863 47.882C23.6957 47.882 24.6273 47.7267 25.4814 47.3385C26.7236 48.6584 28.5093 49.5124 30.3727 49.5124C31.9255 49.5124 33.4783 48.9689 34.6429 47.9596C35.1087 48.5807 36.0404 49.5124 37.2826 50.2112V50.8323C37.2826 51.1429 37.5155 51.3758 37.8261 51.3758H59.4099C59.7205 51.3758 59.9534 51.1429 59.9534 50.8323V47.028C63.1367 45.087 65 41.6708 65 37.9441ZM59.0217 50.2888H38.5248V46.0186H59.0217V50.2888ZM60.1087 45.7081V45.5528C60.1087 45.2422 59.8758 45.0093 59.5652 45.0093H37.9814C37.6708 45.0093 37.4379 45.2422 37.4379 45.5528V48.9689C36.118 48.0373 35.3416 46.8727 35.3416 46.8727L34.9534 46.2516L34.4099 46.7174C33.4006 47.8043 32.0031 48.4255 30.4503 48.4255C28.0435 48.4255 25.8696 46.795 25.1708 44.4658L24.0839 44.7764C24.2391 45.3975 24.5497 45.941 24.8602 46.4068C24.1615 46.6398 23.4627 46.7174 22.764 46.7174C19.1925 46.7174 16.2422 43.7671 16.2422 40.1957C16.2422 37.0901 18.4161 34.3727 21.4441 33.8292L21.9099 33.7516V33.2857C21.9099 33.0528 22.3758 27.3851 27.9658 27.3851C28.6646 27.3851 29.2857 27.5404 29.9845 27.6957C29.8292 28.472 29.7516 29.2484 29.7516 30.1025H30.9162C30.9162 29.2484 30.9938 28.3944 31.2267 27.5404C32.3913 23.1925 36.3509 20.1646 40.854 20.1646C45.4348 20.1646 49.5497 23.4255 50.559 27.9286L50.7143 28.472L51.2578 28.3168C51.2578 28.3168 53.0435 27.9286 53.9752 27.9286C59.4876 27.9286 63.913 32.354 63.913 37.8665C63.8354 40.972 62.4379 43.7671 60.1087 45.7081Z" fill="black"/>
<path d="M59.5652 36.7793H37.9813C37.6708 36.7793 37.4379 37.0122 37.4379 37.3228V42.7576C37.4379 43.0681 37.6708 43.301 37.9813 43.301H59.5652C59.8758 43.301 60.1087 43.0681 60.1087 42.7576V37.3228C60.1087 37.0122 59.8758 36.7793 59.5652 36.7793ZM59.0217 42.2141H38.5248V37.9439H59.0217V42.2141Z" fill="black"/>
<path d="M57.3136 39.4966H56.149V40.6612H57.3136V39.4966Z" fill="black"/>
<path d="M54.7515 39.4966H53.5869V40.6612H54.7515V39.4966Z" fill="black"/>
<path d="M52.1895 39.4966H51.0249V40.6612H52.1895V39.4966Z" fill="black"/>
<path d="M46.3664 39.4966H40.6987V40.6612H46.3664V39.4966Z" fill="black"/>
<path d="M54.7515 47.6489H53.5869V48.8135H54.7515V47.6489Z" fill="black"/>
<path d="M57.3136 47.6489H56.149V48.8135H57.3136V47.6489Z" fill="black"/>
<path d="M52.1895 47.6489H51.0249V48.8135H52.1895V47.6489Z" fill="black"/>
<path d="M46.3664 47.6489H40.6987V48.8135H46.3664V47.6489Z" fill="black"/>
<path d="M59.5652 53.084H37.9813C37.6708 53.084 37.4379 53.3169 37.4379 53.6275V59.0622C37.4379 59.3728 37.6708 59.6057 37.9813 59.6057H59.5652C59.8758 59.6057 60.1087 59.3728 60.1087 59.0622V53.6275C60.1087 53.3169 59.8758 53.084 59.5652 53.084ZM59.0217 58.4411H38.5248V54.1709H59.0217V58.4411Z" fill="black"/>
<path d="M57.3136 55.8013H56.149V56.9659H57.3136V55.8013Z" fill="black"/>
<path d="M54.7515 55.8013H53.5869V56.9659H54.7515V55.8013Z" fill="black"/>
<path d="M52.1895 55.8013H51.0249V56.9659H52.1895V55.8013Z" fill="black"/>
<path d="M46.3664 55.8013H40.6987V56.9659H46.3664V55.8013Z" fill="black"/>
</svg>
