<svg width="80" height="80" viewBox="0 0 80 80" fill="none" xmlns="http://www.w3.org/2000/svg">
<circle cx="40" cy="40" r="40" fill="#FAF5FF"/>
<path d="M65.4589 19.7233L60.9767 19.1051L58.9674 15.0093L56.9582 19.1051L52.476 19.7233L55.799 22.8918L55.0262 27.374L59.0447 25.2102L63.0633 27.374L62.2905 22.8918L65.4589 19.7233ZM58.9674 23.8964L56.5718 25.2102L57.0355 22.5054L55.0262 20.5734L57.731 20.187L58.9674 17.7141L60.2039 20.187L62.9087 20.5734L60.8994 22.5054L61.3631 25.2102L58.9674 23.8964Z" fill="black"/>
<path d="M41.1159 28.2242C34.1607 27.7605 28.3647 33.2473 28.3647 40.1252C28.3647 41.439 28.5966 42.83 29.0603 44.1438L30.0649 46.2303C30.2195 46.4622 30.374 46.7713 30.5286 47.0031V47.0804C32.1515 49.9398 33.3106 53.0309 34.0834 56.354H31.7651V57.5132H34.3926C34.3926 57.5905 34.3926 57.5905 34.3926 57.6677C34.4698 57.9769 34.4698 58.286 34.5471 58.5951H31.7651V59.7543H34.7017C34.779 60.2952 34.8562 60.7589 34.8562 61.2226V61.3772C35.2426 62.3045 36.17 63 37.1746 63H43.357C44.5162 63 45.5208 62.2272 45.7527 60.9908C45.7527 60.7589 45.83 60.5271 45.83 60.2952C45.83 60.1407 45.83 59.9088 45.9072 59.7543H48.7666V58.5951H46.0618C46.1391 58.2087 46.2164 57.8223 46.2936 57.5132H48.8439V56.354H46.5255C47.2983 52.7991 48.612 49.4761 50.3895 46.5394C50.4668 46.3849 50.544 46.2303 50.6213 46.0758L50.6986 45.9985C51.7805 44.0665 52.3215 41.7481 52.2442 39.507C51.8578 33.4792 47.1437 28.6106 41.1159 28.2242ZM44.6708 60.1407C44.6708 60.3725 44.5935 60.6044 44.5935 60.7589C44.4389 61.3772 43.898 61.7636 43.2797 61.7636H37.0974C36.5564 61.7636 36.0927 61.4544 35.8609 60.9908C35.7836 60.6044 35.7836 60.1407 35.7063 59.7543H44.5935C44.7481 59.9088 44.7481 60.0634 44.6708 60.1407ZM44.9026 58.5178C44.9026 58.5178 44.9026 58.5951 44.9026 58.5178L35.7063 58.5951C35.629 58.2087 35.629 57.8223 35.5518 57.5132H45.1345C45.0572 57.8223 44.9799 58.1314 44.9026 58.5178ZM49.694 45.3803C49.5394 45.5348 49.4621 45.7667 49.3848 45.9212C47.5301 49.0897 46.2164 52.5673 45.3663 56.354H35.3199C34.5471 52.7991 33.3107 49.4761 31.6105 46.4622V46.3849C31.4559 46.1531 31.3014 45.8439 31.2241 45.6894L30.2195 43.6801C29.8331 42.5209 29.6012 41.3617 29.6012 40.1252C29.6012 33.9429 34.8562 28.9969 41.1159 29.3833C46.5255 29.7697 50.8532 34.0974 51.085 39.5843C51.1623 41.5935 50.6986 43.6028 49.694 45.3803Z" fill="black"/>
<path d="M49.6867 50.324L51.2526 51.9272L52.0819 51.1173L50.516 49.514L49.6867 50.324Z" fill="black"/>
<path d="M53.5467 44.2963L55.7045 44.9019L56.0177 43.7858L53.8599 43.1802L53.5467 44.2963Z" fill="black"/>
<path d="M53.6983 35.9691L53.9851 37.0923L56.1565 36.5378L55.8697 35.4147L53.6983 35.9691Z" fill="black"/>
<path d="M49.8699 29.8428L50.6801 30.6719L52.2829 29.1056L51.4727 28.2765L49.8699 29.8428Z" fill="black"/>
<path d="M45.2556 24.6333L44.1395 24.3198L43.5335 26.4776L44.6496 26.791L45.2556 24.6333Z" fill="black"/>
<path d="M37.5274 26.4014L36.9729 24.23L35.8498 24.5168L36.4042 26.6882L37.5274 26.4014Z" fill="black"/>
<path d="M31.0536 29.6599L29.4875 28.0566L28.6583 28.8667L30.2243 30.47L31.0536 29.6599Z" fill="black"/>
<path d="M27.1684 35.6658L25.0106 35.0601L24.6973 36.1761L26.855 36.7819L27.1684 35.6658Z" fill="black"/>
<path d="M27.0323 44.0226L26.7455 42.8994L24.5741 43.4539L24.8609 44.577L27.0323 44.0226Z" fill="black"/>
<path d="M28.4276 50.8526L29.2393 51.6802L30.8392 50.1109L30.0275 49.2834L28.4276 50.8526Z" fill="black"/>
<path d="M23.8053 27.2195V26.0603H20.4822V22.7373H19.323V26.0603H16V27.2195H19.323V30.4653H20.4822V27.2195H23.8053Z" fill="black"/>
<path d="M39.7248 18.1005H40.8068V16.0912H42.816V14.932H40.8068V13H39.7248V14.932H37.7156V16.0912H39.7248V18.1005Z" fill="black"/>
<path d="M25.3508 54.5762H24.1916V56.5854H22.1824V57.7446H24.1916V59.7539H25.3508V57.7446H27.2828V56.5854H25.3508V54.5762Z" fill="black"/>
</svg>
