<svg width="80" height="80" viewBox="0 0 80 80" fill="none" xmlns="http://www.w3.org/2000/svg">
<circle cx="40" cy="40" r="40" fill="#FAF5FF"/>
<path d="M62.1799 52.6495V29.7836C62.1799 28.183 60.8841 26.811 59.2073 26.811H45.6402V27.9543H59.2073C60.1982 27.9543 61.0366 28.7927 61.0366 29.7836V52.5732H18.811V29.7836C18.811 28.7927 19.6494 27.9543 20.6402 27.9543H34.3598V26.811H20.6402C19.0396 26.811 17.6677 28.1068 17.6677 29.7836V52.5732H15V54.8598L17.1341 57.6037H62.8659L65 54.8598V52.5732H62.1799V52.6495ZM63.7805 54.4787L62.2561 56.5366H17.6677L16.1433 54.4787V53.7165H63.7805V54.4787Z" fill="black"/>
<path d="M41.9816 33.5183C42.5913 35.1951 45.3352 40.378 56.2346 46.8567C56.3108 46.8567 56.6157 47.0091 56.9968 47.0091C57.3779 47.0091 57.759 46.8567 58.0639 46.5518C58.7499 45.8659 58.5212 45.1037 58.2925 44.7226C51.8901 33.5945 46.631 30.9268 44.9541 30.3171C45.0303 29.25 44.7255 28.3354 44.7255 28.3354C43.8871 25.439 40.9145 25.2866 39.9236 25.2104C38.6279 25.1341 37.8657 23.686 37.8657 23.686L37.4846 23L36.9511 23.5335C36.9511 23.5335 34.131 26.3537 36.57 30.4695C38.3993 33.6707 40.8383 33.747 41.9816 33.5183ZM37.256 25.0579C37.7133 25.6677 38.6279 26.4299 39.8474 26.5061C42.0578 26.6585 43.2011 27.3445 43.6584 28.8689C43.6584 28.8689 44.0395 29.7835 43.8108 30.7744L43.6584 31.3841L44.2682 31.4604C44.3444 31.4604 49.9846 32.6037 57.3779 45.4085C57.4541 45.4848 57.4541 45.6372 57.3017 45.7896C57.1493 45.9421 56.9206 45.8659 56.9206 45.8659C44.3444 38.3963 43.0486 32.7561 43.0486 32.7561L42.8962 32.0701L42.2864 32.2988C42.2864 32.2988 41.9053 32.4512 41.2956 32.4512C40.3047 32.4512 38.8566 31.9939 37.6371 30.0122C36.1127 27.6494 36.7224 25.8963 37.256 25.0579Z" fill="black"/>
<path d="M48.2456 35.8647L47.4507 35.043L46.629 35.8379L47.4239 36.6596L48.2456 35.8647Z" fill="black"/>
<path d="M48.9738 38.3042L49.7955 37.5093L49.0006 36.6876L48.1789 37.4825L48.9738 38.3042Z" fill="black"/>
<path d="M50.5852 39.9839L51.4069 39.189L50.6119 38.3673L49.7902 39.1622L50.5852 39.9839Z" fill="black"/>
<path d="M22.0885 50.8204H46.555L22.0885 29.6313V50.8204ZM43.5062 49.6771H40.3812V48.0765H39.2379V49.6771H36.8751V48.7624H35.7318V49.6771H33.369V48.0765H32.2257V49.6771H29.8629V48.7624H28.7196V49.6771H26.3568V48.0765H25.2135V49.6771H23.308V47.3143H24.9086V46.171H23.308V44.3417H24.2226V43.1984H23.308V41.3692H24.9086V40.2259H23.308V38.4728H24.2226V37.3295H23.308V35.5003H24.9086V34.357H23.308V32.1466L43.5062 49.6771Z" fill="black"/>
<path d="M25.8994 37.3286V46.7036H36.6464L25.8994 37.3286ZM27.0427 39.8439L33.5976 45.5603H27.0427V39.8439Z" fill="black"/>
</svg>
